<svg xmlns="http://www.w3.org/2000/svg" viewBox="0 0 512 512">
  <defs><linearGradient id="g" x1="0" y1="0" x2="1" y2="1"><stop offset="0" stop-color="#0f2027"/><stop offset="1" stop-color="#2c5364"/></linearGradient></defs>
  <rect width="512" height="512" rx="72" fill="url(#g)"/>
  <path d="M156 278h200c34 0 62 28 62 62v38H94v-38c0-34 28-62 62-62Z" fill="rgba(255,255,255,.18)"/>
  <path d="M196 214c0-40 32-72 72-72 28 0 52 16 64 39-14-8-32-7-46 3-24 17-30 50-13 74 4 6 10 12 16 16-7 2-14 3-21 3-40 0-72-32-72-63Z" fill="rgba(255,255,255,.5)"/>
  <text x="50%" y="82%" text-anchor="middle" fill="#fff" font-family="Arial, sans-serif" font-size="34" font-weight="700">床边故事</text>
</svg>
